<?xml version="1.0" encoding="UTF-8"?>
<svg id="Layer_2" data-name="Layer 2" xmlns="http://www.w3.org/2000/svg" viewBox="0 0 1057.35 418.24">
  <defs>
    <style>
      .cls-1 {
        fill: #f6be00;
      }

      .cls-2 {
        letter-spacing: .01em;
      }

      .cls-3 {
        font-family: K2D-ExtraBold, K2D;
        font-size: 179.08px;
        font-weight: 700;
        stroke-width: 4px;
      }

      .cls-3, .cls-4 {
        stroke: #000;
        stroke-miterlimit: 10;
      }

      .cls-4 {
        stroke-width: 8px;
      }

      .cls-5 {
        letter-spacing: .01em;
      }

      .cls-6 {
        letter-spacing: -.01em;
      }
    </style>
  </defs>
  <g id="Layer_1-2" data-name="Layer 1">
    <g id="Concept_3" data-name="Concept 3">
      <path class="cls-1" d="m447.67,100.73c-15.81,6.9-72.39,32.47-136.56,72.41-6.18,3.84-12.46,7.83-18.74,11.94-1.87-2.89-3.92-5.72-6.18-8.43-30.56-36.71-85.1-41.72-121.81-11.17-36.73,30.57-41.71,85.12-11.15,121.83,2.01,2.42,4.14,4.7,6.35,6.84-4.36,4.72-8.56,9.51-12.66,14.37,0,0-.74.76-2.13,2.22-8.86,9.29-43.68,46.63-72.67,89.95l49.15-83.1-91.66,70.13s153.29-134.96,58.85-93.27c0,0,76.79-52.93-88.47-24.76,18.95-3.9,169.94-36.11,70.14-53.44,1.45.05,101.47,3.58-69.97-63.92,12.09,3.91,176.04,56.67,97.44-8.02,2.58,1.76,83.38,55.68-29.06-94.01,0,0,122.25,139.5,88.93,43.64,3.57,8.22,42.82,95.01,22.51-93.95,1.88,11.04,31.29,182,53.12,78.23-.25,3.75-7.74,123.62,65.16-66.51-1.46,4.65-55.01,176.79,7.54,93.3-2.04,3.12-61.06,94.85,88.1-19.72-24.75,19.69-87.93,74.45,53.76,15.43Z"/>
      <path class="cls-1" d="m253.4,381.45s331.44-127.2,673.38,0c0,0-328.76-80.6-673.38,0Z"/>
      <text class="cls-3" transform="translate(172.78 312.91) scale(.92 1)"><tspan class="cls-2" x="0" y="0">24sun</tspan><tspan class="cls-6" x="539.01" y="0">r</tspan><tspan class="cls-5" x="615.84" y="0">ises</tspan></text>
      <g>
        <path class="cls-4" d="m655.41,196.75s-31.34-56.54-104.47-5.53c0,0-1.23-79.89-70.67-79.27,0,0,55.92-24.58,87.57,46.09,0,0,61.15-28.27,87.57,38.72Z"/>
        <path class="cls-4" d="m499.94,172.35s-11.55-20.83-38.49-2.04c0,0-.45-29.43-26.04-29.21,0,0,20.6-9.06,32.26,16.98,0,0,22.53-10.41,32.26,14.26Z"/>
        <path class="cls-4" d="m443.45,120.17s-9.12-13.46-26.29.96c0,0-2.1-19.98-19.48-18.27,0,0,13.46-7.41,22.97,9.58,0,0,14.68-8.46,22.81,7.73Z"/>
        <path class="cls-4" d="m625.41,128.85s-9.63-13.1-26.24,1.98c0,0-2.87-19.89-20.18-17.5,0,0,13.16-7.93,23.33,8.68,0,0,14.34-9.02,23.09,6.84Z"/>
      </g>
    </g>
  </g>
</svg>